<?xml version="1.0" encoding="iso-8859-1"?>
<!-- Generator: Adobe Illustrator 19.0.1, SVG Export Plug-In . SVG Version: 6.00 Build 0)  -->
<svg version="1.1" xmlns="http://www.w3.org/2000/svg" xmlns:xlink="http://www.w3.org/1999/xlink" x="0px" y="0px"
	 viewBox="0 0 128 128" style="enable-background:new 0 0 128 128;" xml:space="preserve">
<g id="_x31_2">
	<path id="icon_21_" style="fill:#FFFF;" d="M91.913,42.228L77.778,56.772L20.47,0.998c16.947,9.764,44.016,25.408,44.016,25.408
		L91.913,42.228z M122.893,60.121c-2.07-1.099-16.564-9.509-24.13-13.931l-15.49,15.925l17.331,16.87
		c7.694-4.448,19.835-11.451,22.085-12.755C126.037,64.287,125.731,61.655,122.893,60.121z M77.931,67.61l-54.343,55.851
		c17.254-9.969,40.898-23.618,40.898-23.618l29.216-16.87L77.931,67.61z M9.571,1.123C7.076-1.305,2.889,0.463,2.889,3.945v120.111
		c0,3.533,4.294,5.278,6.758,2.745l62.784-64.526L9.571,1.123z"/>
</g>
<g id="Layer_1">
</g>
</svg>
